<?xml version="1.0" standalone="no"?>
<!DOCTYPE svg PUBLIC "-//W3C//DTD SVG 20010904//EN"
 "http://www.w3.org/TR/2001/REC-SVG-20010904/DTD/svg10.dtd">
<svg version="1.0" xmlns="http://www.w3.org/2000/svg"
 width="256.000000pt" height="256.000000pt" viewBox="0 0 256.000000 256.000000"
 preserveAspectRatio="xMidYMid meet">
<metadata>
Created by potrace 1.11, written by Peter Selinger 2001-2013
</metadata>
<g transform="translate(0.000000,256.000000) scale(0.100000,-0.100000)"
fill="#000000" stroke="none">
<path d="M1760 1920 l0 -160 240 -240 240 -240 -240 -240 -240 -240 0 -155 c0
-85 2 -155 5 -155 3 0 183 178 400 395 l395 395 -400 400 -400 400 0 -160z"/>
<path d="M393 1674 l-393 -394 400 -400 400 -400 0 160 0 160 -240 240 -240
240 240 240 240 240 0 155 c0 85 -3 155 -7 154 -5 0 -185 -178 -400 -395z"/>
<path d="M1120 1280 l-320 -320 160 0 160 0 315 315 c173 173 315 317 315 320
0 3 -70 5 -155 5 l-155 0 -320 -320z"/>
</g>
</svg>
